<?xml version="1.0" encoding="utf-8"?>
<!-- Generator: Adobe Illustrator 16.0.0, SVG Export Plug-In . SVG Version: 6.00 Build 0)  -->
<!DOCTYPE svg PUBLIC "-//W3C//DTD SVG 1.1//EN" "http://www.w3.org/Graphics/SVG/1.1/DTD/svg11.dtd">
<svg version="1.1" id="Layer_1" xmlns="http://www.w3.org/2000/svg" xmlns:xlink="http://www.w3.org/1999/xlink" x="0px" y="0px"
	 width="650px" height="650px" viewBox="0 0 650 650" enable-background="new 0 0 650 650" xml:space="preserve">
<polygon opacity="0.8" fill="#CCCCCC" stroke="#000000" stroke-miterlimit="10" points="324.5,324.5 324.5,4.628 111.971,93.809 
	6.557,324.5 "/>
<polygon opacity="0.8" fill="#CCCCCC" stroke="#000000" stroke-miterlimit="10" points="324.5,324.5 324.5,4.628 537.483,93.809 
	643.353,324.5 "/>
<polygon fill="#29ABE2" stroke="#000000" stroke-miterlimit="10" points="288.594,295.51 5.083,324.5 147.084,145.156 
	324.463,6.102 "/>
<polygon fill="#29ABE2" stroke="#000000" stroke-miterlimit="10" points="359.35,286.666 644.826,324.5 500.859,127.467 
	325.446,6.102 "/>
<polygon opacity="0.8" fill="#CCCCCC" stroke="#000000" stroke-miterlimit="10" points="324.5,326.5 324.5,646.5 111.972,557.256 
	6.558,326.5 "/>
<polygon opacity="0.8" fill="#CCCCCC" stroke="#000000" stroke-miterlimit="10" points="324.5,326.5 324.5,646.5 537.482,557.256 
	643.353,326.5 "/>
<polygon fill="#29ABE2" stroke="#000000" stroke-miterlimit="10" points="288.595,355.619 5.083,326.629 147.084,505.973 
	324.463,645.027 "/>
<polygon fill="#29ABE2" stroke="#000000" stroke-miterlimit="10" points="359.35,364.463 644.826,326.629 500.859,523.662 
	325.446,645.027 "/>
<g>
</g>
<text transform="matrix(0.7071 -0.7071 0.7071 0.7071 173.6172 233.5986)" font-family="'MyriadPro-Regular'" font-size="44.9589">Love</text>
<text transform="matrix(0.7071 -0.7071 0.7071 0.7071 153.9517 297.9517)" font-family="'MyriadPro-Regular'" font-size="23.1483">Happines</text>
<text transform="matrix(0.7071 0.7071 -0.7071 0.7071 432 198)" font-family="'MyriadPro-Regular'" font-size="44.9589">Be</text>
<text transform="matrix(0.7071 0.7071 -0.7071 0.7071 369 225)" font-family="'MyriadPro-Regular'" font-size="29.4994">Breathe</text>
<text transform="matrix(0.7071 -0.7071 0.7071 0.7071 252 225)" font-family="'MyriadPro-Regular'" font-size="29.4994">Soul</text>
<text transform="matrix(0.7071 0.7071 -0.7071 0.7071 360 81)" font-family="'MyriadPro-Regular'" font-size="29.4994">Enjoy</text>
<text transform="matrix(-0.7071 -0.7071 0.7071 -0.7071 234 513)" font-family="'MyriadPro-Regular'" font-size="44.9589">Peace</text>
<text transform="matrix(-0.7071 -0.7071 0.7071 -0.7071 213.8682 405.6582)" font-family="'MyriadPro-Regular'" font-size="27.3952">Heal</text>
<text transform="matrix(-0.7071 -0.7071 0.7071 -0.7071 279 495)" font-family="'MyriadPro-Regular'" font-size="27.3952">Recieve</text>
<text transform="matrix(-0.7071 0.7071 -0.7071 -0.7071 504.9316 351.9316)" font-family="'MyriadPro-Regular'" font-size="20.9585">Abundance</text>
<text transform="matrix(-0.7071 0.7071 -0.7071 -0.7071 414 441)" font-family="'MyriadPro-Regular'" font-size="29.739">Infinity</text>
<text transform="matrix(-0.7071 0.7071 -0.7071 -0.7071 496.1533 415.1533)" font-family="'MyriadPro-Regular'" font-size="36.2619">Intention</text>
</svg>
