<?xml version="1.0" encoding="utf-8"?>
<!-- Generator: Adobe Illustrator 16.0.0, SVG Export Plug-In . SVG Version: 6.00 Build 0)  -->
<!DOCTYPE svg PUBLIC "-//W3C//DTD SVG 1.1//EN" "http://www.w3.org/Graphics/SVG/1.1/DTD/svg11.dtd">
<svg version="1.1" id="Layer_1" xmlns="http://www.w3.org/2000/svg" xmlns:xlink="http://www.w3.org/1999/xlink" x="0px" y="0px"
	 width="650px" height="650px" viewBox="0 0 650 650" enable-background="new 0 0 650 650" xml:space="preserve">
<polygon opacity="0.8" fill="#CCCCCC" stroke="#000000" stroke-miterlimit="10" points="324.5,324.5 324.5,4.628 111.971,93.809 
	6.557,324.5 "/>
<polygon opacity="0.8" fill="#CCCCCC" stroke="#000000" stroke-miterlimit="10" points="324.5,324.5 324.5,4.628 537.483,93.809 
	643.353,324.5 "/>
<polygon fill="#29ABE2" stroke="#000000" stroke-miterlimit="10" points="288.594,295.51 5.083,324.5 147.084,145.156 
	324.463,6.102 "/>
<polygon fill="#29ABE2" stroke="#000000" stroke-miterlimit="10" points="359.35,286.666 644.826,324.5 500.859,127.467 
	325.446,6.102 "/>
<polygon opacity="0.8" fill="#CCCCCC" stroke="#000000" stroke-miterlimit="10" points="324.5,326.5 324.5,646.5 111.972,557.256 
	6.558,326.5 "/>
<polygon opacity="0.8" fill="#CCCCCC" stroke="#000000" stroke-miterlimit="10" points="324.5,326.5 324.5,646.5 537.482,557.256 
	643.353,326.5 "/>
<polygon fill="#29ABE2" stroke="#000000" stroke-miterlimit="10" points="288.595,355.619 5.083,326.629 147.084,505.973 
	324.463,645.027 "/>
<polygon fill="#29ABE2" stroke="#000000" stroke-miterlimit="10" points="359.35,364.463 644.826,326.629 500.859,523.662 
	325.446,645.027 "/>
<g>
</g>
<text transform="matrix(0.7071 -0.7071 0.7071 0.7071 173.6172 233.5986)" font-family="'MyriadPro-Regular'" font-size="44.9589">Earth</text>
<text transform="matrix(0.7071 0.7071 -0.7071 0.7071 418.5 184.5)" font-family="'MyriadPro-Regular'" font-size="44.9589">Fire</text>
<text transform="matrix(-0.7071 0.7071 -0.7071 -0.7071 466.5977 431.3379)" font-family="'MyriadPro-Regular'" font-size="44.9589">Fire</text>
<text transform="matrix(-0.7071 -0.7071 0.7071 -0.7071 234 513)" font-family="'MyriadPro-Regular'" font-size="44.9589">Peace</text>
</svg>
